<svg xmlns="http://www.w3.org/2000/svg" viewBox="0 0 900 640" role="img" aria-hidden="true">
  <defs>
    <linearGradient id="bg" x1="0" y1="0" x2="1" y2="1">
      <stop offset="0" stop-color="#fff0cf"/>
      <stop offset=".48" stop-color="#e8a44d"/>
      <stop offset="1" stop-color="#0e6f68"/>
    </linearGradient>
    <radialGradient id="glow" cx=".22" cy=".2" r=".72">
      <stop offset="0" stop-color="#fff8dd" stop-opacity=".95"/>
      <stop offset=".5" stop-color="#f7c66c" stop-opacity=".42"/>
      <stop offset="1" stop-color="#0d3e3c" stop-opacity="0"/>
    </radialGradient>
    <filter id="shadow" x="-20%" y="-20%" width="140%" height="150%">
      <feDropShadow dx="0" dy="22" stdDeviation="22" flood-color="#19302f" flood-opacity=".28"/>
    </filter>
  </defs>
  <rect width="900" height="640" rx="34" fill="url(#bg)"/>
  <rect width="900" height="640" rx="34" fill="url(#glow)"/>
  <path d="M40 474c92-54 170-61 263-28 79 29 150 50 234 18 113-43 215-32 323 51v125H40Z" fill="#0b3a38" opacity=".2"/>
  <g fill="none" stroke="#fff7db" stroke-width="10" stroke-linecap="round" opacity=".7">
    <path d="M214 173c-28 35-23 67 14 96"/>
    <path d="M300 145c-33 43-26 84 19 118"/>
    <path d="M386 166c-26 34-21 64 13 90"/>
  </g>
  <g filter="url(#shadow)">
    <ellipse cx="455" cy="462" rx="260" ry="72" fill="#123b39" opacity=".24"/>
    <rect x="259" y="228" width="343" height="193" rx="34" fill="#f8efe1"/>
    <rect x="293" y="262" width="204" height="88" rx="18" fill="#295f5b"/>
    <rect x="521" y="269" width="48" height="118" rx="20" fill="#0f766e"/>
    <circle cx="341" cy="306" r="15" fill="#f6c667"/>
    <circle cx="391" cy="306" r="15" fill="#f6c667"/>
    <rect x="314" y="380" width="243" height="32" rx="16" fill="#e4c597"/>
    <path d="M350 395h168" stroke="#ba8551" stroke-width="8" stroke-linecap="round"/>
    <path d="M584 300h46c32 0 54 21 54 52s-22 52-54 52h-46v-34h42c13 0 23-7 23-18s-10-18-23-18h-42Z" fill="#f8efe1"/>
    <g>
      <ellipse cx="248" cy="427" rx="96" ry="24" fill="#ffffff"/>
      <path d="M178 337h132l-18 84c-6 28-28 44-49 44s-44-16-50-44Z" fill="#fffaf0"/>
      <path d="M194 355h99l-11 51c-5 24-21 37-39 37s-34-13-39-37Z" fill="#8b4f2d"/>
      <path d="M309 365h25c18 0 31 13 31 31s-13 31-31 31h-23" fill="none" stroke="#fffaf0" stroke-width="18" stroke-linecap="round"/>
    </g>
    <g>
      <ellipse cx="655" cy="447" rx="119" ry="30" fill="#ffffff"/>
      <path d="M585 430c22-48 73-74 126-50 24 11 41 30 49 52-27 22-66 34-106 34-27 0-51-7-69-36Z" fill="#d98943"/>
      <path d="M611 416c29-26 73-32 112-10" stroke="#f9d58a" stroke-width="9" stroke-linecap="round"/>
      <circle cx="671" cy="413" r="10" fill="#fff4d5"/>
      <circle cx="706" cy="424" r="8" fill="#0f766e"/>
    </g>
  </g>
</svg>
