<svg xmlns="http://www.w3.org/2000/svg" viewBox="0 0 900 640" role="img" aria-hidden="true">
  <defs>
    <linearGradient id="bg" x1="0" y1="0" x2="1" y2="1">
      <stop offset="0" stop-color="#fff1d8"/>
      <stop offset=".45" stop-color="#c54f31"/>
      <stop offset="1" stop-color="#293b30"/>
    </linearGradient>
    <radialGradient id="coal" cx=".5" cy=".52" r=".6">
      <stop offset="0" stop-color="#ffb45e" stop-opacity=".66"/>
      <stop offset=".54" stop-color="#8f2d23" stop-opacity=".25"/>
      <stop offset="1" stop-color="#18241f" stop-opacity="0"/>
    </radialGradient>
    <filter id="shadow" x="-20%" y="-20%" width="140%" height="150%">
      <feDropShadow dx="0" dy="24" stdDeviation="24" flood-color="#1b211d" flood-opacity=".3"/>
    </filter>
  </defs>
  <rect width="900" height="640" rx="34" fill="url(#bg)"/>
  <rect width="900" height="640" rx="34" fill="url(#coal)"/>
  <path d="M50 494c83-52 184-66 292-24 71 28 143 35 232-6 108-49 211-26 291 42v134H50Z" fill="#17231f" opacity=".25"/>
  <g fill="none" stroke="#ffe0b4" stroke-width="9" stroke-linecap="round" opacity=".68">
    <path d="M230 155c-29 34-22 68 20 94"/>
    <path d="M332 132c-33 42-25 83 23 116"/>
    <path d="M438 151c-28 38-20 72 21 99"/>
  </g>
  <g filter="url(#shadow)">
    <ellipse cx="457" cy="483" rx="292" ry="70" fill="#111815" opacity=".28"/>
    <circle cx="454" cy="382" r="181" fill="#f7ead8"/>
    <circle cx="454" cy="382" r="136" fill="#24352d"/>
    <circle cx="454" cy="382" r="106" fill="#111815"/>
    <g fill="none" stroke="#6f7b58" stroke-width="9" stroke-linecap="round" opacity=".72">
      <path d="M356 342h196"/>
      <path d="M347 382h214"/>
      <path d="M360 423h188"/>
      <path d="M407 291v180"/>
      <path d="M455 284v196"/>
      <path d="M503 295v176"/>
    </g>
    <g>
      <path d="M376 363c33-28 97-34 146-7 26 14 32 42 12 62-39-26-92-34-153-22-24-8-27-23-5-33Z" fill="#b84b31"/>
      <path d="M390 371c35-12 79-10 127 8" stroke="#f6b26b" stroke-width="11" stroke-linecap="round"/>
      <circle cx="438" cy="377" r="10" fill="#fff0cf"/>
      <circle cx="482" cy="390" r="8" fill="#7ea35c"/>
    </g>
    <g>
      <ellipse cx="245" cy="454" rx="76" ry="31" fill="#fff8e8"/>
      <ellipse cx="245" cy="447" rx="58" ry="20" fill="#d84834"/>
      <circle cx="226" cy="444" r="8" fill="#ffe6a8"/>
      <circle cx="260" cy="448" r="8" fill="#6f954f"/>
    </g>
    <g>
      <ellipse cx="660" cy="456" rx="76" ry="31" fill="#fff8e8"/>
      <ellipse cx="660" cy="449" rx="55" ry="19" fill="#f2d275"/>
      <path d="M630 449c19-10 40-11 62 0" stroke="#8ca45f" stroke-width="8" stroke-linecap="round"/>
    </g>
    <g>
      <ellipse cx="642" cy="274" rx="68" ry="28" fill="#fff8e8"/>
      <ellipse cx="642" cy="268" rx="50" ry="18" fill="#4f7f56"/>
      <circle cx="620" cy="266" r="7" fill="#f6d572"/>
      <circle cx="656" cy="269" r="7" fill="#fff0cf"/>
    </g>
    <path d="M612 210 742 422" stroke="#f7dfb8" stroke-width="13" stroke-linecap="round"/>
    <path d="M642 201 772 413" stroke="#f7dfb8" stroke-width="13" stroke-linecap="round"/>
  </g>
</svg>
