<svg xmlns="http://www.w3.org/2000/svg" viewBox="0 0 900 640" role="img" aria-hidden="true">
  <defs>
    <linearGradient id="bg" x1="0" y1="0" x2="1" y2="1">
      <stop offset="0" stop-color="#fff5dc"/>
      <stop offset=".44" stop-color="#d65b3f"/>
      <stop offset="1" stop-color="#47633d"/>
    </linearGradient>
    <radialGradient id="warm" cx=".28" cy=".22" r=".76">
      <stop offset="0" stop-color="#fffbe8"/>
      <stop offset=".55" stop-color="#ffd88f" stop-opacity=".38"/>
      <stop offset="1" stop-color="#2d3d27" stop-opacity="0"/>
    </radialGradient>
    <filter id="shadow" x="-20%" y="-20%" width="140%" height="150%">
      <feDropShadow dx="0" dy="23" stdDeviation="24" flood-color="#27331f" flood-opacity=".28"/>
    </filter>
  </defs>
  <rect width="900" height="640" rx="34" fill="url(#bg)"/>
  <rect width="900" height="640" rx="34" fill="url(#warm)"/>
  <path d="M52 485c95-47 192-57 292-25 90 29 179 37 277-9 90-42 167-12 232 49v140H52Z" fill="#29361f" opacity=".21"/>
  <g fill="none" stroke="#fff0c9" stroke-width="8" stroke-linecap="round" opacity=".68">
    <path d="M238 158c-28 36-20 68 19 92"/>
    <path d="M337 133c-33 44-24 84 24 116"/>
    <path d="M442 160c-25 34-17 63 19 88"/>
  </g>
  <g filter="url(#shadow)">
    <ellipse cx="433" cy="485" rx="276" ry="66" fill="#25301e" opacity=".24"/>
    <ellipse cx="430" cy="404" rx="228" ry="122" fill="#fffaf0"/>
    <ellipse cx="430" cy="397" rx="169" ry="86" fill="#f5d386"/>
    <g fill="none" stroke="#f9e7b7" stroke-width="18" stroke-linecap="round">
      <path d="M315 384c49-49 147-55 226-18"/>
      <path d="M333 426c57-38 139-43 209-12"/>
      <path d="M356 354c48 39 108 55 180 48"/>
      <path d="M340 404c52 28 116 34 190 18"/>
    </g>
    <g>
      <circle cx="373" cy="388" r="18" fill="#cf3c2e"/>
      <circle cx="475" cy="365" r="17" fill="#cf3c2e"/>
      <circle cx="520" cy="424" r="15" fill="#cf3c2e"/>
      <path d="M391 352c23-19 47-22 71-8-24 15-48 18-71 8Z" fill="#5f8745"/>
      <path d="M454 431c24-18 49-20 72-5-24 14-48 16-72 5Z" fill="#5f8745"/>
    </g>
    <g>
      <path d="M651 236h89l-20 192c-4 36-22 59-44 59s-40-23-44-59Z" fill="#f8efe5"/>
      <path d="M657 267h77l-13 60h-51Z" fill="#b7332d" opacity=".9"/>
      <ellipse cx="676" cy="487" rx="67" ry="19" fill="#f8efe5"/>
      <path d="M649 237h93" stroke="#fffaf0" stroke-width="11" stroke-linecap="round"/>
    </g>
    <g>
      <ellipse cx="230" cy="440" rx="74" ry="25" fill="#fffaf0"/>
      <path d="M190 409c20-35 65-43 98-14-17 31-56 45-98 14Z" fill="#d79b46"/>
      <path d="M204 408c22-11 45-11 70 0" stroke="#fff1bd" stroke-width="8" stroke-linecap="round"/>
    </g>
  </g>
</svg>
